<?xml version="1.0" standalone="no"?><!DOCTYPE svg PUBLIC "-//W3C//DTD SVG 1.1//EN" "http://www.w3.org/Graphics/SVG/1.1/DTD/svg11.dtd"><svg t="1675393436089" class="icon" viewBox="0 0 1024 1024" version="1.1" xmlns="http://www.w3.org/2000/svg" p-id="866" data-spm-anchor-id="a313x.7781069.0.i3" xmlns:xlink="http://www.w3.org/1999/xlink" width="200" height="200"><path d="M874.624 396.8c-4.266667 8.533333-8.533333 21.333333-12.8 29.866667-34.133333 68.266667-119.466667 204.8-119.466667 204.8l-25.6 42.666666h119.466667l-226.133333 302.933334 51.2-204.8h-93.866667l34.133333-136.533334c-25.6 4.266667-59.733333 17.066667-93.866666 25.6 0 0-51.2 29.866667-145.066667-55.466666 0 0-64-55.466667-25.6-68.266667a1250.133333 1250.133333 0 0 1 123.733333-21.333333c64-8.533333 102.4-12.8 102.4-12.8s-196.266667 4.266667-243.2-4.266667-106.666667-85.333333-119.466666-153.6c0 0-21.333333-38.4 42.666666-21.333333 59.733333 17.066667 315.733333 68.266667 315.733334 68.266666s-332.8-102.4-354.133334-128a382.634667 382.634667 0 0 1-59.733333-204.8c0-8.533333 8.533333-12.8 17.066667-12.8h4.266666s247.466667 110.933333 413.866667 174.933334 315.733333 93.866667 294.4 174.933333z" p-id="867" data-spm-anchor-id="a313x.7781069.0.i1" class="" fill="#1296db"></path></svg>